<?xml version="1.0" standalone="no"?><!DOCTYPE svg PUBLIC "-//W3C//DTD SVG 1.1//EN" "http://www.w3.org/Graphics/SVG/1.1/DTD/svg11.dtd"><svg t="1555760265307" class="icon" style="" viewBox="0 0 1024 1024" version="1.1" xmlns="http://www.w3.org/2000/svg" p-id="1984" xmlns:xlink="http://www.w3.org/1999/xlink" width="48" height="48"><defs><style type="text/css"></style></defs><path d="M42.666667 896l170.666667 0 0-512-170.666667 0 0 512zM981.333333 426.666667c0-47.146667-38.186667-85.333333-85.333333-85.333333l-269.44 0 40.746667-194.986667c0.853333-4.266667 1.493333-8.746667 1.493333-13.44 0-17.706667-7.253333-33.706667-18.773333-45.226667l-45.44-45.013333-280.96 280.96c-15.36 15.573333-24.96 36.906667-24.96 60.373333l0 426.666667c0 47.146667 38.186667 85.333333 85.333333 85.333333l384 0c35.413333 0 65.706667-21.546667 78.506667-52.053333l128.64-300.8c3.84-9.813333 6.186667-20.266667 6.186667-31.146667l0-81.706667-0.426667-0.426667 0.426667-3.2z" p-id="1985" fill="#8a8a8a"></path></svg>